<svg xmlns="http://www.w3.org/2000/svg" viewBox="0 0 900 900">
<defs>
 <radialGradient id="bg"><stop offset="0" stop-color="#101923"/><stop offset="1" stop-color="#02060a"/></radialGradient>
 <linearGradient id="blue" x1="0" y1="0" x2="1" y2="1"><stop stop-color="#dff5ff"/><stop offset=".45" stop-color="#168cff"/><stop offset="1" stop-color="#00c8ff"/></linearGradient>
 <linearGradient id="silver" x1="0" y1="0" x2="1" y2="1"><stop stop-color="#fff"/><stop offset=".5" stop-color="#aeb8c2"/><stop offset="1" stop-color="#fff"/></linearGradient>
 <filter id="glow"><feGaussianBlur stdDeviation="8" result="b"/><feMerge><feMergeNode in="b"/><feMergeNode in="SourceGraphic"/></feMerge></filter>
</defs>
<circle cx="450" cy="450" r="438" fill="url(#bg)" stroke="#94a8bc" stroke-width="8"/>
<circle cx="450" cy="450" r="418" fill="none" stroke="#087fff" stroke-width="5" opacity=".9" filter="url(#glow)"/>
<g transform="translate(0,-25)">
 <path d="M220 350 L315 170 L410 350 L365 350 L315 245 L270 350Z" fill="url(#silver)"/>
 <path d="M175 410 L495 195 L310 475 L350 390 L270 435 L520 185 L230 410Z" fill="url(#blue)" filter="url(#glow)"/>
 <text x="385" y="350" font-family="Arial,sans-serif" font-size="190" font-weight="900" fill="url(#silver)">3</text>
 <path d="M585 205h110v22H585zM620 227h42v75h-42zM600 302h82v20h-82zM635 322v45h12v-45zM620 367h42v35h-42z" fill="url(#silver)"/>
 <path d="M626 367h30l-15 18z" fill="#00b9ff"/>
 <path d="M610 405h65l-32 20z" fill="none" stroke="#00aaff" stroke-width="5"/>
</g>
<text x="450" y="545" text-anchor="middle" font-family="Arial,sans-serif" font-size="92" font-weight="900" letter-spacing="13" fill="url(#silver)">COSMIC</text>
<text x="450" y="600" text-anchor="middle" font-family="Arial,sans-serif" font-size="30" font-weight="600" letter-spacing="12" fill="#eef5ff">3D DESIGN &amp; PRINT</text>
<path d="M130 635H310M590 635H770" stroke="#00aaff" stroke-width="4"/>
<text x="450" y="680" text-anchor="middle" font-family="Arial,sans-serif" font-size="21" letter-spacing="9" fill="#d9e4ef">IDEA • DESIGN • PRINT • REALITY</text>
<g font-family="Arial,sans-serif" font-size="19" text-anchor="middle" fill="#f2f6fa">
 <text x="245" y="770">CUSTOM DESIGN</text><text x="450" y="770">FUNCTIONAL PARTS</text><text x="655" y="770">PROTOTYPES &amp; MODELS</text>
</g>
</svg>